<svg width="412" height="126" viewBox="0 0 412 126" fill="none" xmlns="http://www.w3.org/2000/svg">
<path d="M281.981 126C281.024 126 280.288 125.727 279.773 125.181C279.258 124.634 279 123.852 279 122.834C279 121.916 279.27 121.171 279.81 120.6C280.374 120.004 281.098 119.706 281.981 119.706C282.914 119.706 283.638 119.979 284.153 120.526C284.668 121.072 284.926 121.841 284.926 122.834C284.926 123.778 284.656 124.548 284.116 125.143C283.576 125.714 282.865 126 281.981 126Z" fill="white"/>
<path d="M299.521 125.963C297.632 125.963 295.889 125.64 294.295 124.994C292.724 124.324 291.35 123.393 290.172 122.201C289.019 120.985 288.123 119.557 287.485 117.919C286.847 116.255 286.528 114.443 286.528 112.481C286.528 110.57 286.86 108.807 287.522 107.193C288.185 105.554 289.117 104.139 290.319 102.948C291.522 101.731 292.933 100.788 294.552 100.117C296.172 99.4469 297.926 99.1117 299.815 99.1117C301.042 99.1117 302.245 99.2855 303.422 99.6331C304.625 99.9559 305.717 100.44 306.698 101.086C307.704 101.731 308.563 102.501 309.275 103.394L305.815 107.268C305.226 106.672 304.613 106.163 303.975 105.741C303.361 105.294 302.699 104.959 301.987 104.735C301.3 104.487 300.564 104.363 299.779 104.363C298.724 104.363 297.73 104.561 296.797 104.959C295.889 105.356 295.092 105.914 294.405 106.634C293.718 107.33 293.166 108.186 292.749 109.204C292.356 110.197 292.16 111.302 292.16 112.519C292.16 113.76 292.356 114.89 292.749 115.908C293.141 116.901 293.693 117.757 294.405 118.477C295.117 119.172 295.963 119.719 296.945 120.116C297.951 120.488 299.055 120.674 300.257 120.674C301.042 120.674 301.803 120.563 302.539 120.339C303.275 120.116 303.95 119.806 304.563 119.408C305.201 119.011 305.766 118.552 306.257 118.03L308.943 122.388C308.355 123.058 307.557 123.666 306.551 124.212C305.57 124.759 304.465 125.193 303.238 125.516C302.012 125.814 300.772 125.963 299.521 125.963Z" fill="white"/>
<path d="M312.678 125.59V99.5214H318.199V120.563H329.866V125.59H312.678Z" fill="white"/>
<path d="M344.77 125.963C342.88 125.963 341.138 125.628 339.543 124.957C337.948 124.287 336.55 123.356 335.347 122.164C334.169 120.948 333.261 119.52 332.624 117.881C331.986 116.218 331.667 114.418 331.667 112.481C331.667 110.52 331.986 108.732 332.624 107.119C333.261 105.48 334.169 104.052 335.347 102.836C336.55 101.619 337.948 100.676 339.543 100.006C341.138 99.3352 342.88 99 344.77 99C346.684 99 348.426 99.3352 349.996 100.006C351.591 100.676 352.977 101.619 354.155 102.836C355.358 104.052 356.278 105.48 356.916 107.119C357.554 108.757 357.873 110.545 357.873 112.481C357.873 114.418 357.554 116.206 356.916 117.844C356.278 119.483 355.358 120.91 354.155 122.127C352.977 123.343 351.591 124.287 349.996 124.957C348.426 125.628 346.684 125.963 344.77 125.963ZM344.77 120.674C345.849 120.674 346.843 120.476 347.751 120.079C348.683 119.681 349.481 119.11 350.143 118.366C350.806 117.621 351.321 116.752 351.689 115.759C352.082 114.766 352.278 113.673 352.278 112.481C352.278 111.29 352.082 110.197 351.689 109.204C351.321 108.211 350.806 107.354 350.143 106.634C349.481 105.89 348.683 105.319 347.751 104.921C346.843 104.499 345.849 104.288 344.77 104.288C343.69 104.288 342.696 104.499 341.788 104.921C340.88 105.319 340.083 105.89 339.396 106.634C338.709 107.354 338.181 108.211 337.813 109.204C337.47 110.197 337.298 111.29 337.298 112.481C337.298 113.673 337.47 114.766 337.813 115.759C338.181 116.752 338.709 117.621 339.396 118.366C340.083 119.11 340.88 119.681 341.788 120.079C342.696 120.476 343.69 120.674 344.77 120.674Z" fill="white"/>
<path d="M372.55 125.814C370.464 125.814 368.599 125.379 366.955 124.51C365.335 123.617 364.06 122.4 363.127 120.861C362.195 119.297 361.728 117.534 361.728 115.572V99.4841H367.286V115.237C367.286 116.28 367.519 117.223 367.986 118.068C368.452 118.887 369.077 119.545 369.863 120.041C370.672 120.538 371.568 120.786 372.55 120.786C373.556 120.786 374.463 120.538 375.273 120.041C376.108 119.545 376.758 118.887 377.224 118.068C377.715 117.223 377.96 116.28 377.96 115.237V99.4841H383.334V115.572C383.334 117.534 382.868 119.297 381.935 120.861C381.003 122.4 379.715 123.617 378.071 124.51C376.451 125.379 374.611 125.814 372.55 125.814Z" fill="white"/>
<path d="M388.886 125.59V99.5214H399.449C401.338 99.5214 403.044 99.8441 404.565 100.49C406.111 101.11 407.436 102.004 408.54 103.171C409.669 104.313 410.528 105.679 411.117 107.268C411.706 108.857 412 110.619 412 112.556C412 114.468 411.706 116.23 411.117 117.844C410.528 119.433 409.681 120.811 408.577 121.978C407.473 123.12 406.148 124.014 404.602 124.659C403.056 125.28 401.338 125.59 399.449 125.59H388.886ZM394.407 121.531L393.818 120.563H399.265C400.369 120.563 401.363 120.377 402.246 120.004C403.13 119.607 403.878 119.073 404.491 118.403C405.129 117.708 405.608 116.863 405.927 115.87C406.246 114.877 406.405 113.772 406.405 112.556C406.405 111.339 406.246 110.247 405.927 109.279C405.608 108.286 405.129 107.441 404.491 106.746C403.878 106.051 403.13 105.517 402.246 105.145C401.363 104.748 400.369 104.549 399.265 104.549H393.707L394.407 103.655V121.531Z" fill="white"/>
<path d="M411.903 66.4209C411.903 66.59 411.819 67.7681 411.652 69.954H377.426C378.043 72.7567 379.499 74.9722 381.799 76.5968C384.096 78.224 386.956 79.0356 390.375 79.0356C392.731 79.0356 394.819 78.6846 396.639 77.9853C398.463 77.2833 400.158 76.1762 401.727 74.6625L408.708 82.2319C404.447 87.1095 398.224 89.547 390.039 89.547C384.937 89.547 380.425 88.5521 376.499 86.5611C372.575 84.5726 369.548 81.8112 367.418 78.2782C365.287 74.7464 364.223 70.7385 364.223 66.2532C364.223 61.8246 365.273 57.8309 367.375 54.2708C369.478 50.7106 372.365 47.935 376.037 45.9453C379.71 43.9555 383.816 42.9593 388.357 42.9593C392.786 42.9593 396.794 43.9129 400.383 45.8188C403.97 47.7247 406.788 50.4577 408.833 54.0178C410.881 57.578 411.903 61.7123 411.903 66.4209ZM388.44 52.8823C385.47 52.8823 382.976 53.7236 380.958 55.4063C378.939 57.0876 377.706 59.3858 377.257 62.3008H399.541C399.094 59.4426 397.86 57.1573 395.842 55.4476C393.824 53.7378 391.357 52.8823 388.44 52.8823Z" fill="white"/>
<path d="M365.477 43.6329L346.388 88.8747H332.85L313.845 43.6329H327.384L339.915 74.4109L352.865 43.6329H365.477Z" fill="white"/>
<path d="M291.107 42.9593C298.115 42.9593 303.498 44.6278 307.253 47.9634C311.009 51.299 312.888 56.3315 312.888 63.0582V88.8747H300.61V83.241C298.143 87.445 293.547 89.547 286.819 89.547C283.342 89.547 280.329 88.9586 277.778 87.7818C275.227 86.605 273.28 84.9778 271.934 82.9042C270.588 80.8305 269.916 78.4756 269.916 75.8407C269.916 71.6353 271.499 68.3281 274.667 65.9164C277.835 63.5073 282.726 62.3008 289.341 62.3008H299.769C299.769 59.4426 298.9 57.2425 297.162 55.6992C295.424 54.1585 292.818 53.3881 289.341 53.3881C286.931 53.3881 284.562 53.7662 282.235 54.5224C279.909 55.2785 277.933 56.3018 276.307 57.5922L271.597 48.4254C274.065 46.6872 277.022 45.3414 280.47 44.3891C283.917 43.4368 287.464 42.9593 291.107 42.9593ZM290.097 80.717C292.34 80.717 294.331 80.1982 296.069 79.1621C297.807 78.1246 299.04 76.5968 299.769 74.5787V69.954H290.771C285.389 69.954 282.698 71.7205 282.698 75.251C282.698 76.9336 283.358 78.2653 284.674 79.246C285.991 80.2279 287.801 80.717 290.097 80.717Z" fill="white"/>
<path d="M263.998 43.6329V88.8747H251.551V83.4938C249.813 85.4552 247.74 86.9546 245.328 87.9921C242.917 89.0295 240.311 89.547 237.508 89.547C231.566 89.547 226.856 87.8385 223.38 84.4177C219.904 80.9982 218.166 75.9245 218.166 69.1978V43.6329H231.285V67.2635C231.285 74.5515 234.34 78.1942 240.452 78.1942C243.591 78.1942 246.114 77.1723 248.02 75.1257C249.926 73.0792 250.879 70.0378 250.879 66.0002V43.6329H263.998Z" fill="white"/>
<path d="M148 59.4412C148 53.6668 149.388 48.4679 152.164 43.8419C154.938 39.2172 158.778 35.5874 163.684 32.9537C168.591 30.3175 174.099 29 180.209 29C186.319 29 191.828 30.3175 196.732 32.9537C201.638 35.5874 205.478 39.2172 208.253 43.8419C211.028 48.4679 212.417 53.6668 212.417 59.4412C212.417 65.2156 211.028 70.4146 208.253 75.0406C205.478 79.6653 201.638 83.2951 196.732 85.9287C191.828 88.565 186.319 89.8824 180.209 89.8824C174.099 89.8824 168.591 88.565 163.684 85.9287C158.778 83.2951 154.938 79.6653 152.164 75.0406C149.388 70.4146 148 65.2156 148 59.4412ZM198.625 59.4412C198.625 55.7972 197.827 52.5467 196.228 49.6873C194.63 46.8278 192.43 44.5993 189.626 43.0019C186.823 41.4031 183.684 40.6056 180.209 40.6056C176.733 40.6056 173.595 41.4031 170.791 43.0019C167.987 44.5993 165.787 46.8278 164.189 49.6873C162.592 52.5467 161.792 55.7972 161.792 59.4412C161.792 63.0852 162.592 66.337 164.189 69.1952C165.787 72.0546 167.987 74.2831 170.791 75.8806C173.595 77.4794 176.733 78.2781 180.209 78.2781C183.684 78.2781 186.823 77.4794 189.626 75.8806C192.43 74.2831 194.63 72.0546 196.228 69.1952C197.827 66.337 198.625 63.0852 198.625 59.4412Z" fill="white"/>
<path fill-rule="evenodd" clip-rule="evenodd" d="M212.137 88.8747H201.309H199.017L175.915 62.1652H178.206H189.034H191.325L214.428 88.8747H212.137Z" fill="white"/>
<path fill-rule="evenodd" clip-rule="evenodd" d="M79.5575 2.23045C113.119 11.375 132.913 45.9964 123.769 79.5575C114.624 113.119 80.003 132.913 46.4418 123.769C12.8807 114.624 -6.91225 80.003 2.23045 46.4418C11.375 12.8807 45.9964 -6.91225 79.5575 2.23045ZM92.4222 96.8097C90.1393 96.357 87.9375 95.8738 85.8204 95.3634C69.5673 91.4395 54.7622 85.0161 47.8718 78.1275C44.002 74.2559 41.6054 68.9073 41.6054 62.9997C41.6054 34.6501 84.394 34.6501 84.394 62.9997V63.1313V63.2179C84.3615 72.815 78.8633 79.7072 72.3462 82.78C77.417 85.0486 81.7738 86.2568 88.6191 87.5407C95.0821 81.3933 98.9033 73.0999 99.0999 63.8707L99.1017 63.7246L99.1089 63.29L99.1107 63.144V63.1313V62.9997C99.1107 43.2915 82.2192 28.2881 62.758 28.3746C43.4285 28.4612 26.7481 43.4285 26.7481 62.9997C26.6561 66.7397 27.1682 70.2598 28.2159 73.5273C34.9242 94.4365 56.9659 101.496 74.5678 106.445C79.7307 105.273 88.217 101.105 92.4222 96.8097ZM87.2991 88.7345C87.6742 88.4099 88.0439 88.0799 88.4045 87.7445C88.042 88.0781 87.6742 88.4099 87.2991 88.7345Z" fill="url(#paint0_linear_4035_99)"/>
<defs>
<linearGradient id="paint0_linear_4035_99" x1="126" y1="126" x2="0" y2="126" gradientUnits="userSpaceOnUse">
<stop stop-color="#78FDE2"/>
<stop offset="1" stop-color="#B3FE71"/>
</linearGradient>
</defs>
</svg>
